<svg xmlns="http://www.w3.org/2000/svg" viewBox="0 0 578 400" role="img" aria-label="dε.ai"><title>dε.ai</title><desc>Approved dε brand identity v6. Custom d and Greek epsilon share a single spine. Approved right-hand proportion refinement. Approved September 30, 2026.</desc><g fill="#F2F1ED"><path fill-rule="evenodd" d="M200 40H232V159C252 148 274 142 298 142C322 142 343 147 363 155L353 184C337 177 319 173 300 173C261 173 233 189 233 212C233 230 249 239 277 239H333V269H275C246 269 231 280 231 298C231 320 254 330 292 330C316 330 337 324 356 316L368 344C346 355 320 361 291 361C256 361 229 351 210 332C192 351 170 361 143 361C83 361 46 316 46 254C46 193 84 147 140 147C164 147 184 156 200 172V40Z M200 252C200 206 178 177 143 177C105 177 79 208 79 252C79 299 105 331 143 331C179 331 200 300 200 252Z"/><g transform="translate(385 355) scale(.145 -.145)"><path transform="translate(0 0)" d="M138 -12C176 -12 209 20 209 58C209 97 176 129 138 129C99 129 66 97 66 58C66 20 99 -12 138 -12Z"/><path transform="translate(276 0)" d="M211 -12C290 -12 357 23 382 79L392 0H472V307C472 439 390 503 269 503C143 503 59 436 59 334H141C141 393 186 428 265 428C331 428 380 399 380 317V303L226 291C111 282 44 226 44 136C44 47 106 -12 211 -12ZM238 61C177 61 139 87 139 139C139 187 173 219 256 227L381 237V211C381 119 327 61 238 61Z"/><path transform="translate(810 0)" d="M114 605C148 605 176 633 176 667C176 702 148 729 114 729C80 729 52 702 52 667C52 633 80 605 114 605ZM68 0H162V489H68Z"/></g></g></svg>